<?xml version="1.0" standalone="no"?>
<!DOCTYPE svg PUBLIC "-//W3C//DTD SVG 20010904//EN"
 "http://www.w3.org/TR/2001/REC-SVG-20010904/DTD/svg10.dtd">
<svg version="1.0" xmlns="http://www.w3.org/2000/svg"
 width="512.000000pt" height="512.000000pt" viewBox="0 0 512.000000 512.000000"
 preserveAspectRatio="xMidYMid meet">
<metadata>
Created by potrace 1.11, written by Peter Selinger 2001-2013
</metadata>
<g transform="translate(0.000000,512.000000) scale(0.100000,-0.100000)"
fill="#000000" stroke="none">
<path d="M2357 4923 c-4 -3 -22 -7 -39 -9 -18 -1 -51 -5 -73 -8 -22 -4 -56 -9
-75 -12 -41 -5 -47 -7 -125 -24 -33 -7 -66 -13 -72 -13 -7 0 -13 -4 -13 -9 0
-5 -4 -6 -10 -3 -5 3 -16 3 -22 -2 -7 -4 -20 -9 -28 -11 -57 -12 -185 -56
-192 -66 -4 -6 -10 -7 -14 -3 -4 4 -16 0 -26 -10 -10 -9 -18 -13 -18 -9 0 4
-12 1 -27 -8 -78 -41 -133 -65 -133 -59 0 5 -4 3 -8 -3 -4 -6 -27 -22 -52 -34
-25 -12 -57 -31 -72 -42 -16 -11 -28 -17 -28 -13 0 3 -10 -3 -22 -15 -12 -11
-27 -20 -34 -20 -7 0 -14 -4 -16 -8 -1 -5 -25 -23 -53 -42 -76 -51 -236 -181
-242 -197 -3 -7 -8 -11 -12 -10 -3 2 -30 -21 -59 -50 -28 -29 -50 -53 -48 -53
2 0 -15 -19 -38 -43 -23 -23 -55 -59 -72 -80 -32 -38 -34 -40 -114 -152 -27
-38 -54 -76 -60 -82 -6 -7 -8 -13 -6 -13 5 0 -34 -64 -53 -87 -6 -6 -13 -23
-17 -37 -3 -14 -10 -26 -14 -26 -5 0 -12 -10 -16 -22 -3 -13 -11 -29 -18 -37
-6 -7 -11 -19 -11 -25 -1 -6 -16 -42 -34 -81 -56 -117 -70 -175 -43 -170 10 2
17 4 17 5 0 2 125 11 185 14 25 1 50 5 57 9 6 4 14 3 18 -3 4 -6 13 -7 23 -2
9 5 41 8 69 8 29 -1 53 1 53 4 0 3 24 6 52 7 29 0 94 4 143 8 50 5 111 8 138
9 26 0 47 3 47 6 0 3 19 5 43 6 103 3 204 11 215 18 7 4 12 2 12 -4 0 -6 5 -8
12 -4 7 4 33 9 58 10 25 1 45 3 45 4 0 1 38 3 85 6 47 2 108 6 135 9 28 2 86
7 130 10 44 3 112 8 150 11 39 3 95 7 125 9 30 2 55 4 55 5 0 1 32 3 71 4 39
2 75 5 80 8 5 3 20 4 34 3 14 -1 29 0 34 3 13 7 216 10 216 3 0 -3 18 -6 40
-5 22 0 40 -3 40 -7 0 -5 7 -6 15 -3 8 3 20 2 27 -2 7 -5 15 -9 18 -9 22 -4
77 -19 85 -24 6 -3 12 -6 15 -6 3 -1 22 -9 44 -18 21 -9 41 -17 45 -17 4 0 13
-6 19 -12 7 -7 16 -13 20 -13 7 -1 58 -32 79 -50 7 -5 19 -16 28 -23 8 -7 15
-10 15 -7 0 3 12 -7 28 -22 15 -15 41 -39 58 -53 16 -14 33 -33 36 -42 4 -9
17 -22 30 -29 20 -11 21 -10 11 3 -13 15 -58 148 -55 161 1 4 -3 7 -10 7 -6 0
-9 3 -5 6 3 4 -1 20 -9 36 -9 17 -13 32 -10 36 3 3 -1 16 -9 29 -9 13 -13 23
-10 23 3 0 0 10 -7 23 -7 12 -13 27 -14 32 0 6 -2 13 -4 18 -1 4 -4 12 -5 17
-1 6 -4 12 -5 15 -1 3 -3 8 -4 13 -1 4 -6 21 -13 37 -22 59 -26 70 -28 78 -2
4 -4 9 -5 12 -1 3 -4 10 -5 15 -1 6 -3 11 -5 13 -1 1 -3 9 -5 17 -4 20 -84
250 -95 275 -10 23 -23 63 -26 85 -2 8 -7 23 -12 35 -21 42 -42 105 -36 105 4
0 2 6 -3 13 -6 6 -23 50 -38 97 -15 47 -32 91 -38 98 -5 6 -6 12 -2 12 4 0 2
7 -5 15 -7 8 -10 15 -7 15 3 0 -7 36 -23 79 -15 44 -26 82 -22 85 3 3 1 6 -5
6 -9 0 -28 54 -24 73 0 4 -4 7 -11 7 -6 0 -9 3 -5 6 3 4 -5 36 -19 73 -14 36
-25 68 -26 71 -4 28 -15 30 -153 30 -90 0 -146 -4 -150 -10 -5 -8 -11 -8 -19
-1 -7 6 -16 8 -19 4z"/>
<path d="M3338 4794 c-4 -10 -3 -29 7 -154 4 -47 7 -113 8 -147 1 -35 4 -63 7
-63 3 0 5 -28 5 -62 0 -35 2 -67 4 -72 2 -5 5 -34 7 -65 7 -126 11 -169 18
-180 4 -6 2 -11 -5 -11 -7 0 -8 -5 -3 -12 5 -7 9 -32 9 -55 -1 -24 3 -43 7
-43 4 0 3 -11 -2 -24 -5 -13 -6 -26 -3 -29 6 -6 9 -37 18 -164 3 -49 8 -115
11 -148 3 -33 6 -89 8 -125 2 -36 5 -65 6 -65 1 0 3 -29 6 -65 2 -36 6 -92 9
-125 6 -82 17 -232 19 -275 1 -19 5 -41 10 -49 7 -10 6 -12 -4 -6 -9 6 -11 4
-5 -5 4 -7 9 -38 11 -69 2 -31 6 -74 9 -96 5 -40 5 -55 4 -77 0 -7 2 -25 4
-41 2 -15 0 -30 -4 -33 -5 -3 -5 -13 1 -23 5 -10 6 -21 3 -25 -4 -4 -8 -21 -9
-39 -2 -18 -6 -48 -10 -67 -5 -19 -8 -39 -9 -45 0 -5 -3 -14 -7 -20 -3 -5 -9
-26 -13 -45 -4 -19 -11 -39 -15 -45 -4 -5 -13 -27 -19 -47 -7 -21 -17 -38 -22
-38 -6 0 -8 -4 -4 -9 3 -5 0 -15 -7 -23 -7 -7 -20 -26 -28 -43 -8 -16 -22 -37
-30 -46 -26 -29 -50 -63 -50 -71 0 -4 -7 -8 -15 -8 -8 0 -15 -4 -15 -10 0 -5
-22 -32 -50 -58 -47 -46 -73 -86 -30 -47 11 10 20 15 20 12 0 -6 19 0 95 29
11 4 23 8 27 8 3 1 10 4 14 8 4 5 18 8 31 8 13 0 23 4 23 10 0 5 7 7 15 4 8
-4 15 -1 15 7 0 7 3 10 6 7 3 -4 49 10 102 29 53 19 102 36 107 37 28 6 92 30
103 39 6 5 12 6 12 2 0 -4 7 -2 15 5 8 7 15 10 15 7 0 -5 60 13 100 30 8 3 17
7 20 8 24 6 59 18 75 25 11 5 76 27 145 50 69 23 134 46 145 50 21 9 93 32
110 36 6 1 24 8 40 15 17 6 35 13 40 15 6 1 44 15 85 29 41 15 80 28 85 30 10
2 26 8 80 28 17 7 32 12 35 13 18 2 97 27 105 32 6 4 12 7 15 8 3 0 13 4 23 7
9 4 24 9 32 12 12 3 14 34 10 197 -2 106 -7 207 -10 223 -2 17 -7 50 -10 75
-5 46 -12 85 -15 85 -1 0 -4 16 -6 35 -3 19 -8 42 -11 50 -3 8 -7 24 -9 35 -3
22 -8 42 -16 65 -3 8 -11 35 -18 60 -7 25 -15 52 -18 60 -3 8 -6 17 -7 20 -2
5 -6 16 -21 55 -4 11 -8 22 -9 25 -2 7 -24 61 -32 80 -3 8 -5 18 -5 23 1 4 -3
7 -10 7 -6 0 -8 3 -5 6 3 4 0 16 -8 28 -8 11 -15 28 -15 38 0 10 -4 18 -10 18
-5 0 -10 4 -10 9 0 12 -103 195 -112 199 -4 2 -8 10 -8 18 0 8 -4 14 -10 14
-5 0 -10 6 -10 13 0 6 -14 28 -30 47 -17 19 -36 47 -42 62 -7 15 -15 25 -19
23 -3 -3 -12 8 -20 23 -8 15 -24 35 -37 46 -13 10 -21 20 -18 23 2 2 -51 59
-118 126 -134 134 -182 177 -195 177 -5 0 -11 6 -14 14 -3 7 -28 28 -56 46
-28 19 -51 37 -51 42 0 4 -6 8 -13 8 -8 0 -25 9 -38 21 -13 11 -37 28 -54 36
-16 9 -32 19 -35 23 -3 3 -39 24 -80 46 -41 21 -78 44 -82 49 -5 7 -8 7 -8 0
0 -5 -4 -4 -8 3 -5 7 -19 14 -31 17 -13 2 -28 8 -35 13 -10 8 -44 23 -143 64
-15 6 -32 10 -37 9 -5 -1 -12 3 -16 10 -4 6 -9 7 -12 3z"/>
<path d="M1946 3302 c-3 -5 -27 -15 -53 -22 -27 -7 -54 -17 -60 -23 -7 -5 -13
-6 -13 -2 0 4 -6 3 -12 -2 -11 -9 -53 -22 -75 -24 -5 0 -12 -4 -18 -8 -5 -4
-38 -16 -72 -27 -35 -10 -63 -22 -63 -26 0 -4 -9 -5 -20 -3 -11 2 -20 0 -20
-6 0 -5 -3 -8 -7 -7 -5 0 -15 -1 -23 -4 -61 -23 -112 -40 -123 -42 -6 -2 -25
-8 -40 -14 -16 -7 -32 -12 -36 -12 -4 0 -36 -11 -72 -26 -35 -14 -72 -26 -81
-27 -10 -1 -18 -6 -18 -11 0 -5 -2 -7 -5 -4 -4 3 -63 -14 -133 -39 -70 -25
-149 -52 -177 -60 -27 -8 -56 -20 -62 -25 -7 -6 -13 -7 -13 -3 0 4 -7 2 -15
-5 -8 -7 -15 -10 -15 -7 0 3 -17 -1 -37 -9 -20 -9 -44 -17 -52 -19 -9 -2 -29
-9 -46 -16 -16 -7 -34 -11 -39 -10 -4 1 -13 -2 -20 -7 -6 -5 -49 -21 -96 -36
-47 -15 -94 -31 -105 -36 -20 -9 -96 -34 -105 -35 -28 -3 -31 -22 -29 -176 1
-87 4 -157 8 -155 3 2 7 -17 8 -42 0 -26 4 -64 7 -84 3 -21 9 -55 12 -75 4
-21 7 -48 7 -60 1 -13 5 -23 11 -23 5 0 7 -3 3 -6 -3 -3 0 -25 8 -49 7 -24 11
-46 9 -48 -2 -2 8 -37 22 -78 14 -41 26 -81 28 -89 1 -8 8 -28 15 -45 7 -16
13 -38 14 -47 1 -10 5 -18 9 -18 4 0 8 -7 8 -15 0 -8 13 -42 29 -75 16 -33 27
-60 24 -60 -4 0 1 -8 10 -17 8 -10 19 -30 22 -45 4 -16 10 -28 14 -28 3 0 17
-25 31 -55 14 -30 28 -55 33 -55 4 0 7 -7 7 -15 0 -8 3 -15 8 -15 4 0 13 -13
20 -29 7 -16 23 -40 36 -54 13 -14 22 -27 20 -29 -2 -2 8 -17 21 -32 14 -16
25 -32 25 -35 0 -3 10 -17 23 -31 12 -14 40 -47 62 -75 22 -27 55 -64 73 -81
17 -18 32 -37 32 -42 0 -6 9 -14 20 -17 11 -3 20 -13 20 -21 0 -8 4 -14 10
-14 5 0 24 -15 42 -33 18 -17 60 -54 93 -82 33 -27 68 -58 79 -67 11 -10 26
-18 33 -18 8 0 11 -4 8 -10 -3 -5 -1 -10 5 -10 12 0 83 -50 88 -63 2 -4 8 -5
13 -1 5 3 9 1 9 -5 0 -5 9 -13 20 -16 11 -3 26 -12 32 -18 7 -7 33 -23 58 -36
71 -38 185 -95 190 -97 3 0 23 -9 45 -19 41 -18 86 -37 95 -40 3 -1 12 -4 20
-7 44 -17 48 -16 53 7 2 14 2 27 -2 30 -3 3 -7 32 -8 63 -6 103 -8 127 -15
137 -4 6 -3 17 2 25 4 7 5 23 1 34 -4 12 -7 45 -7 73 1 29 -1 53 -4 53 -3 0
-6 24 -7 53 -1 28 -5 93 -8 142 -4 50 -7 111 -8 138 -1 26 -4 47 -7 47 -3 0
-6 28 -7 63 -2 93 -10 177 -16 184 -4 3 -2 13 3 23 5 10 6 21 2 25 -4 3 -8 25
-8 48 -3 65 -13 212 -15 212 -1 0 -3 27 -4 60 -2 33 -4 60 -5 60 -1 0 -3 27
-5 60 -3 52 -11 157 -20 275 -2 19 -4 35 -5 35 0 0 -3 38 -5 85 -6 109 -11
156 -19 168 -3 6 -2 13 4 17 6 4 7 12 3 18 -9 13 -11 177 -3 177 3 0 6 15 7
33 1 35 6 57 14 72 3 6 4 20 3 33 0 12 2 22 6 22 4 0 7 6 8 13 1 12 9 47 12
57 1 3 2 8 1 13 0 4 3 7 9 7 6 0 9 3 8 8 -2 8 52 124 61 132 4 3 19 25 35 49
41 64 123 153 166 182 15 10 20 18 13 22 -7 4 -14 3 -17 -1z"/>
<path d="M1826 1944 c8 -19 11 -34 8 -34 -4 0 -1 -6 5 -14 7 -8 14 -23 16 -35
3 -12 7 -30 9 -41 3 -11 8 -26 13 -33 4 -6 8 -14 8 -17 1 -3 16 -49 34 -102
18 -54 33 -101 34 -105 0 -5 6 -19 13 -32 7 -14 11 -28 8 -33 -3 -4 0 -8 6 -8
7 0 10 -6 7 -14 -3 -7 -2 -17 3 -22 4 -5 13 -27 20 -49 7 -22 18 -46 24 -54 9
-12 8 -13 -4 -6 -12 7 -13 6 -4 -6 6 -8 23 -50 38 -94 15 -44 31 -88 37 -98 5
-10 7 -22 4 -27 -4 -6 -2 -10 3 -10 5 0 9 -6 10 -12 0 -11 24 -82 77 -236 2
-7 4 -14 5 -17 0 -3 7 -19 15 -35 9 -17 13 -30 9 -30 -4 0 -1 -7 6 -15 7 -8 9
-15 5 -15 -4 0 -2 -7 5 -15 6 -8 9 -18 6 -24 -3 -5 -2 -11 4 -13 5 -1 11 -14
14 -28 2 -14 5 -27 6 -30 2 -3 2 -8 1 -12 0 -5 4 -8 10 -8 6 0 9 -7 5 -15 -3
-8 0 -15 6 -15 6 0 9 -3 6 -6 -4 -3 0 -21 8 -40 8 -19 14 -36 14 -39 0 -3 7
-21 15 -41 8 -20 15 -45 15 -55 0 -10 4 -20 9 -23 7 -5 18 -43 21 -74 1 -4 8
-17 16 -30 8 -12 12 -22 9 -22 -3 0 1 -13 10 -30 l15 -29 188 4 c203 5 245 8
357 31 17 3 39 7 50 9 11 1 54 11 95 21 41 10 78 17 83 16 4 -1 7 2 7 6 0 4
12 9 26 10 15 1 33 7 40 13 8 6 14 9 14 5 0 -3 24 4 53 15 28 12 59 23 67 24
8 2 17 4 20 5 3 1 8 2 13 1 4 0 7 3 7 9 0 5 9 10 20 10 11 0 20 5 20 12 0 6 3
9 6 5 4 -3 25 4 48 15 22 12 44 21 49 20 4 -1 7 3 7 10 0 6 3 9 6 6 3 -4 33 9
66 28 33 19 62 34 64 34 2 0 13 8 24 17 11 10 24 18 28 18 10 1 96 58 100 68
2 4 8 7 13 7 15 0 175 125 232 182 20 20 37 35 37 32 0 -3 21 17 48 44 96 100
162 174 162 182 0 5 3 10 8 12 4 2 23 23 42 48 19 25 37 47 40 50 13 12 119
179 146 230 16 30 32 57 37 58 4 2 7 12 7 23 0 10 5 19 10 19 6 0 9 3 8 8 0 4
14 39 32 77 19 39 34 72 35 75 1 10 27 75 37 94 13 24 -5 36 -46 30 -43 -6
-192 -17 -248 -18 -27 -1 -48 -3 -48 -6 0 -3 -24 -6 -53 -6 -47 -1 -120 -6
-302 -20 -33 -3 -85 -7 -115 -9 -30 -2 -91 -7 -135 -10 -44 -3 -107 -8 -140
-10 -33 -2 -60 -4 -60 -5 0 -2 -152 -12 -207 -14 -27 0 -48 -3 -48 -6 0 -3
-30 -5 -68 -5 -37 0 -71 -2 -77 -4 -5 -3 -39 -6 -76 -7 -36 0 -70 -3 -75 -6
-5 -2 -28 -4 -51 -3 -24 1 -43 -1 -43 -4 0 -3 -27 -6 -60 -5 -35 0 -57 -3 -53
-9 3 -5 -4 -4 -14 2 -11 6 -23 8 -26 4 -3 -3 -32 -7 -64 -9 -32 -2 -80 -6
-108 -9 -48 -5 -155 -9 -165 -5 -3 1 -27 3 -55 6 -64 5 -83 8 -91 17 -4 4 -18
7 -30 7 -13 0 -33 4 -46 9 -24 10 -53 19 -66 22 -4 1 -16 8 -27 15 -11 8 -27
14 -37 14 -10 0 -18 4 -18 9 0 5 -8 11 -17 14 -22 7 -72 37 -91 55 -7 6 -17
12 -22 12 -4 0 -48 40 -98 89 -76 75 -88 84 -76 55z"/>
</g>
</svg>
